<svg width="52" height="49" viewBox="0 0 52 49" fill="none" xmlns="http://www.w3.org/2000/svg">
<path d="M28.2389 2.62982L33.707 13.6354C34.2167 14.6611 35.1959 15.3726 36.3289 15.5403L48.4856 17.3399C50.5292 17.6424 51.3448 20.1525 49.8693 21.5985L41.0921 30.1999C40.2741 31.0016 39.9 32.1528 40.0906 33.2821L42.1357 45.3999C42.4795 47.437 40.3443 48.9883 38.5131 48.0319L27.6204 42.3423C26.6052 41.812 25.3948 41.812 24.3796 42.3423L13.4869 48.0319C11.6557 48.9883 9.52048 47.437 9.86427 45.3999L11.9094 33.2821C12.1 32.1528 11.7259 31.0016 10.9079 30.1999L2.13073 21.5985C0.655202 20.1525 1.47078 17.6424 3.51443 17.3399L15.6711 15.5403C16.8041 15.3726 17.7833 14.6611 18.293 13.6354L23.7611 2.62982C24.6804 0.779677 27.3196 0.779676 28.2389 2.62982Z" fill="#FFD644" stroke="black"/>
</svg>
